<?xml version="1.0" encoding="UTF-8" standalone="no"?>
<!DOCTYPE svg PUBLIC "-//W3C//DTD SVG 1.1//EN" "http://www.w3.org/Graphics/SVG/1.1/DTD/svg11.dtd">
<svg width="100%" height="100%" viewBox="0 0 2021 650" version="1.1" xmlns="http://www.w3.org/2000/svg" xmlns:xlink="http://www.w3.org/1999/xlink" xml:space="preserve" xmlns:serif="http://www.serif.com/" style="fill-rule:evenodd;clip-rule:evenodd;stroke-linejoin:round;stroke-miterlimit:2;">
    <g transform="matrix(1.55638,0,0,1.55638,-591.735,-1269.2)">
        <g transform="matrix(0.828737,0,0,0.828737,380.199,811.843)">
            <g id="_1.svg" serif:id="1.svg">
                <g>
                    <g>
                        <clipPath id="_clip1">
                            <rect x="0" y="0" width="512" height="512"/>
                        </clipPath>
                        <g clip-path="url(#_clip1)">
                            <g transform="matrix(0.576894,0,0,0.576894,-39.3695,-27.0018)">
                                <path d="M716.083,529.14L518.595,331.652L392.053,458.194L590.612,656.754L321.329,926.037L573.748,926.703L843.697,656.754L843.308,656.365L955.756,543.917L828.531,416.692L716.083,529.14ZM321.329,457.237L435.92,342.646L309.378,216.104L68.244,457.237L389.999,778.992L516.541,652.45L321.329,457.237ZM597.679,181.645L470.454,54.42L343.268,181.606L470.493,308.831L597.679,181.645Z" style="fill:white;"/>
                            </g>
                        </g>
                    </g>
                </g>
            </g>
        </g>
        <g transform="matrix(0.816748,0,0,0.816748,125.417,184.371)">
            <g>
                <g transform="matrix(1,0,0,1,952,1024)">
                    <text x="0px" y="0px" style="font-family:'ArialMT', 'Arial';font-size:244.873px;fill:white;">L</text>
                </g>
                <g transform="matrix(1,0,0,1,1117.53,1024)">
                    <text x="0px" y="0px" style="font-family:'ArialMT', 'Arial';font-size:244.873px;fill:white;">I<tspan x="94.77px 285.53px 372.95px " y="0px 0px 0px ">RIA</tspan></text>
                </g>
            </g>
        </g>
        <g transform="matrix(0.573363,0,0,0.573363,361.921,604.078)">
            <g>
                <g transform="matrix(1,0,0,1,952,1024)">
                    <text x="0px" y="0px" style="font-family:'ArialMT', 'Arial';font-size:281.739px;fill:white;">G</text>
                </g>
                <g transform="matrix(1,0,0,1,1189.79,1024)">
                    <text x="0px" y="0px" style="font-family:'ArialMT', 'Arial';font-size:281.739px;fill:white;">r<tspan x="129.6px 308.22px 511.07px 700.68px 787.74px 965.52px " y="0px 0px 0px 0px 0px 0px ">aphics</tspan></text>
                </g>
            </g>
        </g>
    </g>
</svg>
